<?xml version="1.0" encoding="utf-8"?>
<!-- Generator: Adobe Illustrator 26.0.1, SVG Export Plug-In . SVG Version: 6.00 Build 0)  -->
<svg version="1.1" id="chicken_feet_00000069391679903637383110000017937900051237852034_"
	 xmlns="http://www.w3.org/2000/svg" xmlns:xlink="http://www.w3.org/1999/xlink" x="0px" y="0px" viewBox="0 0 251.5 154.7"
	 style="enable-background:new 0 0 251.5 154.7;" xml:space="preserve">
<style type="text/css">
	.st0{fill:#C69C6D;}
	.st1{fill:#8C6239;}
	.st2{fill:none;stroke:#754C24;stroke-miterlimit:10;}
	.st3{fill:#F7931E;stroke:#F7501E;stroke-width:0.44;stroke-miterlimit:10;}
	.st4{fill:none;stroke:#F7501E;stroke-width:0.44;stroke-miterlimit:10;}
</style>
<g id="dimsum_cage">
	<g id="dimsum_cage-2">
		<path class="st0" d="M2.2,44.4c0,0,11.2-8.4,44.2-12.9c24.9-3.4,60.4-4.6,65.9-4.7s42.7-1.4,54.2,1s43.6,1.3,71.7,10.7
			c9.2,3.1,12.1,3.5,12.4,7.8s0,88.2,0,88.2s-5.9,6.7-22.5,10.6c-7.3,1.7-50.1,10.2-121.8,9c-15.9-0.2-86.9-3.4-105.8-18.6l-0.3-9.7
			l0.3-77.9L2.2,44.4z"/>
		<polygon class="st1" points="35.3,62.3 92.4,40 103.7,40.6 45.3,63.7 		"/>
		<polygon class="st1" points="89.5,67.6 149,40.2 157.2,40.6 98.8,67.6 96.8,69.1 		"/>
		<polygon class="st1" points="158.1,68.5 202.1,44.6 208.3,45.3 168.5,67.6 		"/>
		<ellipse class="st2" cx="125.8" cy="47.9" rx="125.2" ry="21.2"/>
		<path class="st2" d="M6.1,54.9C22,46.2,69.6,40,125.8,40c55.5,0,102.5,6.1,119,14.6"/>
		<path class="st2" d="M251,61.2c0,11.7-56.1,21.2-125.3,21.2S0.5,72.9,0.5,61.2"/>
		<path class="st2" d="M251,96.2c0,11.7-56.1,21.2-125.3,21.2S0.5,108,0.5,96.2"/>
		<path class="st2" d="M251,132.9c0,11.7-56.1,21.2-125.3,21.2S0.5,144.7,0.5,132.9"/>
		<line class="st2" x1="0.5" y1="47.9" x2="0.5" y2="132.9"/>
		<line class="st2" x1="251" y1="47.9" x2="251" y2="132.9"/>
		<line class="st2" x1="43.1" y1="63.9" x2="105.2" y2="40.3"/>
		<line class="st2" x1="96.6" y1="68.6" x2="158.1" y2="40.7"/>
		<line class="st2" x1="157.2" y1="68.5" x2="202.3" y2="44.4"/>
		<line class="st2" x1="34" y1="62.4" x2="93.3" y2="40.7"/>
		<line class="st2" x1="87.8" y1="68.2" x2="150.8" y2="40.4"/>
		<line class="st2" x1="167.4" y1="67.9" x2="209" y2="45.3"/>
		<line class="st2" x1="110.8" y1="82.4" x2="110.8" y2="154.1"/>
	</g>
</g>
<g id="chicken_feet">
	<path class="st3" d="M125.1,2.4c0,0-6.3-2.9-11.4-2.1S91.5,8.1,87,7.2S28.8,21.8,25.9,24.5s-5.1,5.9-0.2,7.8c4.9,1.9,64-6.9,65-4.2
		s2.6,2-0.4,4.1S29.4,44,29.5,48s-1.1,5.5,6.1,6.9s86.9-9.3,86.9-9.3s16.2-7.6,19-12s-1.9-12.2,0.5-14.2s8-4.9,6.6-7.6
		s-4.9-3.6-7.4-3.9c-1.8-0.1-3.6-0.5-5.2-1.2C134.1,5.8,125.1,2.4,125.1,2.4z"/>
	<path class="st4" d="M40.6,20.8c0,0,6.4,3.4,2.4,8.5"/>
	<path class="st4" d="M56.8,16.9c0,0,8.1,2.1,4.3,9.3"/>
	<path class="st4" d="M73.9,13.7c0,0,8.1,2,4.3,9.3"/>
	<path class="st4" d="M46.1,43.8c0,0,8.1,2,4.3,9.3"/>
	<path class="st4" d="M63.7,39.9c0,0,8.1,2,4.3,9.3"/>
	<path class="st4" d="M84.9,37.2c0,0,8.1,2,4.3,9.3"/>
	<path class="st4" d="M96.1,11.5c0,0,17.7,8.2,6,30.6"/>
	<path class="st4" d="M108.2,9.5c0,0,17.7,8.2,6,30.5"/>
	<path class="st4" d="M121.3,5.5c0,0,17.7,8.2,6,30.5"/>
	<path class="st3" d="M161.4,22.3c0,0-5.6-4.2-10.7-4.4s-23.4,2.9-27.6,1.1s-60,2.1-63.3,4s-6.2,4.7-1.8,7.6s64,6.6,64.4,9.5
		s2.2,2.5-1.3,4s-62-1.2-62.7,2.8s-2.2,5.2,4.5,8s86.9,9.1,86.9,9.1s17.5-4,21.1-7.8s0.8-12.3,3.5-13.8s8.9-3.1,8.1-6
		s-4-4.6-6.4-5.3c-1.8-0.4-3.4-1.2-4.9-2.3C169.4,27.5,161.4,22.3,161.4,22.3z"/>
	<path class="st4" d="M74.9,22.6c0,0,5.6,4.6,0.6,8.8"/>
	<path class="st4" d="M91.5,22.1c0,0,7.5,3.7,2.2,10"/>
	<path class="st4" d="M109,22.6c0,0,7.5,3.7,2.2,10"/>
	<path class="st4" d="M75.5,46.2c0,0,7.5,3.7,2.2,10"/>
	<path class="st4" d="M93.5,46.1c0,0,7.5,3.7,2.2,10"/>
	<path class="st4" d="M114.8,47.8c0,0,7.5,3.7,2.2,10"/>
	<path class="st4" d="M131.1,25c0,0,15.6,11.8-0.6,31.1"/>
	<path class="st4" d="M143.4,25.6c0,0,15.6,11.8-0.6,31.1"/>
	<path class="st4" d="M157,24.5c0,0,15.6,11.8-0.6,31.1"/>
	<path class="st3" d="M200.1,14.6c0,0-6.4-2.8-11.4-1.9s-22.2,7.9-26.7,7.1s-58,15.1-60.9,17.8s-5,5.9-0.1,7.8s63.9-7.5,64.9-4.8
		s2.7,2-0.4,4.2S104.8,57,105,61.1s-1,5.6,6.1,6.9s86.8-10.1,86.8-10.1s16.2-7.8,18.9-12.2s-2-12.2,0.4-14.2s8-5,6.6-7.7
		s-4.9-3.6-7.4-3.8c-1.8-0.1-3.6-0.5-5.3-1.2C209.1,17.9,200.1,14.6,200.1,14.6z"/>
	<path class="st4" d="M115.8,33.8c0,0,6.4,3.3,2.5,8.5"/>
	<path class="st4" d="M131.9,29.6c0,0,8.1,2,4.4,9.2"/>
	<path class="st4" d="M149,26.4c0,0,8.1,2,4.4,9.2"/>
	<path class="st4" d="M121.5,56.7c0,0,8.1,2,4.3,9.2"/>
	<path class="st4" d="M139.1,52.7c0,0,8.1,2,4.4,9.2"/>
	<path class="st4" d="M160.2,49.7c0,0,8.1,2,4.4,9.2"/>
	<path class="st4" d="M171.2,23.9c0,0,17.8,8.1,6.3,30.5"/>
	<path class="st4" d="M183.3,21.8c0,0,17.8,8.1,6.3,30.5"/>
	<path class="st4" d="M196.3,17.7c0,0,17.8,8.1,6.3,30.5"/>
</g>
</svg>
