<svg id="dim_sum" data-name="dim sum" xmlns="http://www.w3.org/2000/svg" viewBox="0 0 94.92 94.92">
  <defs>
    <style>
      #dim_sum:hover #cover {
        transform: rotate(80deg); 
      }

      .cls-1 {
        fill: #f9c19b;
        stroke: #df9b5f;
        stroke-miterlimit: 10;
        transform-origin: center;
      }
    </style>
  </defs>
  <title>dim-sum-cover</title>
  <path id="cover" class="cls-1" d="M8.6,61.5,23.8,45.4M6.6,53.3l9.3-7.8m3.3,4.7L8.8,33M6.7,41l4.9,8.1M8.8,33,19,24M11.9,38,27.2,26.1m-5,3.4L16.6,20m4.9-4.6,5.7,10.8m-16,41,3.4-4.5m-3.2-4.5,9.1,11.9m-4.8,3.8L25,66.6m3.1,4.5L16.3,53.4M32.6,67,20,78.3m5.3,4L43.9,69.5M23.6,55.7l14.3,18m-3.7,2.4L46.3,88m-8.2-.3,4.3-3.5m15.3,3.3L44.1,78.3m1,10.4,8-4.3M62.4,86l-7.5-7.5m8.8-2,5.7,6M49,81.5,64.9,71.2M57,80.6,74.4,70m-20.3.9L40.4,81.7M35.2,59.3,48.5,74.9M44.8,60.1,58.3,75.4M55.9,61l12,12.9M67.3,62,79,74.2M61.3,66.8l11-10m-1.7,8.7L86.9,50.8M76.4,60.3l7,7.6m1.4-9.6,1.7,2.6m-6.6,2.3L88,55.3m-19.6-3L49.3,65.2m5.8-12.6L38.7,63.4M19.8,59.2,32.4,47.7m-4.7,4-11.1-18m8.8,2.8L38.1,56.4m-7.5,8L43.1,51.1m1.3-3.7L35.7,35.5m12,17.6,1.8,3.1M45.3,37.3,62.1,56.5M57.7,40.1,72.3,56.7M68.8,39.4l13,16m5.1-4.6-7.8-9.9m7,1.9L88.8,46M83,45.8l5-6.4m-1.7-6.1L73.8,45.6m5.6-15.7-17,15.4M21,40.8,35.3,24.4m11.1,1.5L27.7,40.2M40,41.4l18-14M51.4,44.2,69.3,29.7M24.4,19.4,40.8,8m-.5,22.6L28.9,16.3m10.3-.8,12,17.3M48.6,15.7,63,34.8M58.2,17,73.4,35M67.9,18.5,84.5,34.8M79.6,22l-3.8,3.2M72.9,14.9l-9.3,8.3m2.6-12.6L53.5,22.1M58.4,7.6,43.1,21.2m5.3-15,4.8,6.1M39.9,6.9l3.8,5.3M32.3,20.6,49.6,7.7M36.9,47.6s-.6,1.7,2.2,2.8S54,53.3,55.7,52s1.5-2.7-2.3-2.8S40,47.3,40,46.5s-1.4-3.2-3.2-2.7-1.5.9-1.5.9S34.1,46.3,36.9,47.6Zm4,3.4L43,47.6m.1,3.6,2.8-2.9m-.8,3.5L47,48.5m0,3.6,1.8-3.3m-.1,3.6L50.5,49m.2,3.4,2.1-3.2m-.1,3.3,1.6-3.2m-16,.7,1.9-2.7M.5,46.4A47,47,0,1,0,48.5.5,46.94,46.94,0,0,0,.5,46.4Zm5.7.1A41.31,41.31,0,1,0,48.4,6.2,41.32,41.32,0,0,0,6.2,46.5Z" transform="translate(0.01 0.01)"/>
</svg>
