<?xml version="1.0" encoding="utf-8"?>
<!-- Generator: Adobe Illustrator 26.0.3, SVG Export Plug-In . SVG Version: 6.00 Build 0)  -->
<svg version="1.1" id="Layer_1" xmlns="http://www.w3.org/2000/svg" xmlns:xlink="http://www.w3.org/1999/xlink" x="0px" y="0px"
	 viewBox="0 0 463.8 170" style="enable-background:new 0 0 463.8 170;" xml:space="preserve">
<style type="text/css">
	.st0{fill:#A67C52;}
	.st1{fill:#FFFFFF;}
</style>
<g id="dimsummusicmixer">
	<path id="dimsum" class="st0" d="M0,1.6C8.3,0.5,16.7-0.1,25.1,0c15.1,0,24.5,2.5,32.4,7.8c8.7,6,14.3,15.8,14.3,30.3
		c0,16-6.1,26.4-13.8,32.4c-8.7,6.8-21.5,9.8-36.9,9.8C14,80.4,7,79.9,0,78.9L0,1.6z M21.2,63.6c1.5,0.2,3,0.3,4.4,0.2
		c13.7,0.2,23.7-7.4,23.7-25.1c0-15.3-9.1-22.6-21.7-22.6c-2.2-0.1-4.3,0.1-6.4,0.5V63.6z M85.5,46.2v33.7h-9.1V46.2H85.5z
		 M120.2,67.8c-0.1-3.8-0.2-8.3-0.2-13.6h-0.2c-1,4.5-2.4,9.5-3.6,13.2L113,79.2h-7l-2.8-11.7c-0.8-3.7-1.9-8.7-2.7-13.2h-0.1
		c-0.2,4.8-0.4,9.8-0.6,13.6l-0.5,12H91l2-33.7h12.2l2.2,9c0.9,3.8,1.9,8.2,2.6,12.3h0.2c0.9-4.1,2-8.8,3-12.4l2.5-9h11.9l1.7,33.7
		h-8.8L120.2,67.8z M135.6,70.8c2.7,1.3,5.7,2.1,8.8,2.1c3.1,0,4.6-1,4.6-2.8s-1.5-2.6-5.3-3.9c-5.7-2-9.4-5.2-9.4-10.2
		c0-6,5-10.5,13.5-10.5c3.1-0.1,6.3,0.5,9.1,1.8l-1.9,7.2c-2.3-1.1-4.8-1.6-7.4-1.6c-2.8,0-4.2,1-4.2,2.5c0,1.7,1.8,2.4,6,4
		c6.1,2.2,8.8,5.4,8.8,10.2c0,5.8-4.6,10.8-14.4,10.8c-3.4,0-6.8-0.7-9.9-2.1L135.6,70.8z M172,46.2v19.1c0,5.1,1.8,8,5.3,8
		s5.4-2.7,5.4-8V46.2h9.1v18.6c0,10.4-5.2,15.7-14.6,15.7c-9.2,0-14.1-5-14.1-15.9V46.2H172z M226.4,67.8c-0.1-3.8-0.2-8.3-0.1-13.6
		h-0.1c-1.1,4.5-2.4,9.5-3.6,13.2l-3.4,11.8h-7.1l-2.9-11.7c-0.9-3.7-1.9-8.7-2.6-13.2h-0.1c-0.2,4.8-0.4,9.8-0.6,13.6l-0.5,12h-8.3
		l2.1-33.7h12.1l2.2,9c0.9,3.8,1.9,8.2,2.6,12.3h0.2c0.9-4.1,2.1-8.8,3.1-12.4l2.5-9h11.9l1.7,33.7h-8.8L226.4,67.8z"/>
	<path id="music" class="st1" d="M171.5,133.6c-0.2-6.2-0.3-13.5-0.2-21.9H171c-1.7,7.2-4,15.3-5.7,21.3l-5.4,19h-11.4l-4.6-18.9
		c-1.4-5.9-3.1-14-4.3-21.4h-0.2c-0.3,7.7-0.6,15.7-0.9,21.9l-0.8,19.4h-13.4l3.3-54.4h19.6l3.6,14.6c1.4,6,3.1,13.3,4.2,19.9h0.3
		c1.5-6.6,3.3-14.3,4.9-20l4-14.5h19.2l2.7,54.4h-14.2L171.5,133.6z M200.9,98.7v19.1c0,5.1,1.8,8,5.3,8s5.4-2.7,5.4-8V98.7h9v18.6
		c0,10.4-5.2,15.7-14.6,15.7c-9.2,0-14.1-5-14.1-15.9V98.7L200.9,98.7z M227.3,123.4c2.7,1.3,5.7,2.1,8.8,2.1c3.1,0,4.6-1,4.6-2.8
		s-1.5-2.6-5.3-3.9c-5.7-2-9.4-5.2-9.4-10.2c0-6,5-10.6,13.5-10.6c3.1-0.1,6.3,0.5,9.1,1.8l-1.9,7.2c-2.3-1.1-4.8-1.6-7.4-1.6
		c-2.8,0-4.2,1-4.2,2.5c0,1.7,1.8,2.4,6.1,4c6,2.2,8.8,5.4,8.8,10.2c0,5.8-4.6,10.8-14.4,10.8c-3.4,0-6.8-0.7-9.9-2.1L227.3,123.4z
		 M263.8,98.7v33.7h-9V98.7H263.8z M295.3,131.5c-2.7,1-5.6,1.5-8.5,1.4c-12.6,0-18.1-7.9-18.1-16.8c0-11.9,8.7-18,18.8-18
		c2.9-0.1,5.8,0.4,8.5,1.5l-1.8,7.1c-2-0.8-4.1-1.2-6.2-1.2c-5.2,0-9.7,3-9.7,9.9c0,6.2,3.6,10,9.9,10c2,0,4.1-0.3,6-1L295.3,131.5z
		"/>
	<path id="mixer" class="st1" d="M330.8,158c-0.1-3.9-0.2-8.4-0.1-13.6h-0.1c-1,4.4-2.5,9.5-3.5,13.2l-3.4,11.8h-7l-2.9-11.7
		c-0.9-3.6-1.9-8.6-2.6-13.2H311c-0.2,4.8-0.4,9.8-0.5,13.6l-0.5,12.1h-8.3l2-33.7h12.1l2.2,9c0.9,3.8,1.9,8.2,2.6,12.4h0.2
		c1-4.1,2-8.9,3-12.4l2.5-9h11.9L340,170h-8.8L330.8,158z M354.6,136.4V170h-9v-33.7L354.6,136.4z M378.2,170.1l-2.5-5.5
		c-1-2.1-1.7-3.9-2.6-5.9H373c-0.6,1.9-1.4,3.7-2.1,5.8l-2.2,5.5h-10.2l9.4-17l-9.1-16.6h10.4l2.2,5.4c0.9,2,1.5,3.6,2.2,5.6h0.1
		c0.8-2.2,1.2-3.6,2-5.5l2.1-5.4h10.3l-9.2,16.4l9.8,17.2L378.2,170.1z M413.5,156.4h-12.1v6.2H415v7.4h-22.6v-33.7h21.9v7.4h-12.9
		v5.4h12.1L413.5,156.4z M420,115.9c5.9-0.8,11.8-1.2,17.7-1.1c8.4,0,14.4,1.1,18.5,4.2c3.5,2.7,5.5,6.6,5.5,12
		c0,6.8-5.1,11.7-9.4,13.2v0.3c3.7,1.5,5.6,5,7,9.8c1.7,5.6,3.5,13.6,4.6,15.7h-15.1c-0.8-1.6-2.2-5.9-3.8-12.6c-1.5-6.6-3.5-8-8-8
		h-2.4V170H420V115.9z M434.6,138.9h3.8c5.5,0,8.7-2.8,8.7-6.8s-2.7-6.4-7.6-6.5c-1.7-0.1-3.3,0.1-5,0.3V138.9z"/>
</g>
</svg>
