<?xml version="1.0" encoding="utf-8"?>
<!-- Generator: Adobe Illustrator 26.0.1, SVG Export Plug-In . SVG Version: 6.00 Build 0)  -->
<svg version="1.1" id="egg_roll_00000166651267662376626540000010225556553618555275_"
	 xmlns="http://www.w3.org/2000/svg" xmlns:xlink="http://www.w3.org/1999/xlink" x="0px" y="0px" viewBox="0 0 252.2 108.3"
	 style="enable-background:new 0 0 252.2 108.3;" xml:space="preserve">
<style type="text/css">
	.st0{fill:#F2F2F2;stroke:#B3B3B3;stroke-width:0.7;stroke-miterlimit:10;}
	.st1{fill:#FBC965;stroke:#F7931E;stroke-width:0.69;stroke-miterlimit:10;}
</style>
<g id="egg_roll">
	<ellipse class="st0" cx="126.1" cy="66.5" rx="125.8" ry="41.5"/>
	<ellipse class="st0" cx="126.1" cy="66.5" rx="71.9" ry="17.8"/>
	<path class="st1" d="M17.5,21.4c0,0,70.5-26.5,86.5-20.1s5.4-3.9,18.9,11.2s19.4,19.2,17.9,23.8S117,54.8,104.6,56
		c0,0-49.1,19.3-57.6,17.6c0,0-4.7,2.2-11.8-2.7S14.7,32.3,14.6,29.4C14.3,22.9,14.6,24,17.5,21.4z"/>
	<path class="st1" d="M20.3,22.5C25.8,26,30.5,30.6,34.2,36c6.6,9.3,9.1,25.1,7.8,29.9c0,0,0.3,4.6-8.4-3.1S19.7,41.4,22.3,38.2
		s3.5,1.1,6.1,4"/>
	<path class="st1" d="M89.6,0.9c0,0,16.5,37.5,5,58.9"/>
	<path class="st1" d="M31.4,16.5c0,0,47,23.1,50,48.1"/>
	<path class="st1" d="M62.8,37.1c0,0,70.5-26.5,86.5-20.1s5.4-3.9,18.9,11.2s19.4,19.2,17.9,23.8s-23.8,18.4-36.3,19.6
		c0,0-49.1,19.3-57.6,17.6c0,0-4.7,2.2-11.8-2.7S59.9,48,59.8,45.1C59.5,38.6,59.8,39.7,62.8,37.1z"/>
	<path class="st1" d="M65.6,38.2c5.5,3.5,10.2,8.1,13.9,13.5c6.6,9.3,9.1,25.1,7.8,29.9c0,0,0.3,4.6-8.4-3.1S64.9,57.1,67.6,53.9
		s3.5,1.1,6.1,4"/>
	<path class="st1" d="M134.9,16.6c0,0,16.5,37.5,5,58.9"/>
	<path class="st1" d="M76.6,32.2c0,0,47,23.1,50,48.1"/>
	<path class="st1" d="M114.2,44c0,0,70.5-26.5,86.5-20.1s5.4-3.9,18.9,11.2S239,54.4,237.5,59s-23.8,18.4-36.3,19.6
		c0,0-49.1,19.3-57.6,17.6c0,0-4.7,2.2-11.8-2.7S111.3,54.9,111.2,52C111,45.5,111.3,46.6,114.2,44z"/>
	<path class="st1" d="M117,45.1c5.5,3.5,10.2,8.1,13.9,13.5c6.6,9.3,9.1,25.1,7.8,29.9c0,0,0.3,4.6-8.4-3.1S116.3,64,119,60.8
		s3.5,1.1,6.1,4"/>
	<path class="st1" d="M186.3,23.5c0,0,16.5,37.5,5,58.9"/>
	<path class="st1" d="M128.1,39.1c0,0,47,23.1,50,48.1"/>
</g>
</svg>
