<?xml version="1.0" encoding="utf-8"?>
<!-- Generator: Adobe Illustrator 26.0.1, SVG Export Plug-In . SVG Version: 6.00 Build 0)  -->
<svg version="1.1" id="egg_tart_00000119105968409858912810000002601160970203693492_"
	 xmlns="http://www.w3.org/2000/svg" xmlns:xlink="http://www.w3.org/1999/xlink" x="0px" y="0px" viewBox="0 0 252.2 102.5"
	 style="enable-background:new 0 0 252.2 102.5;" xml:space="preserve">
<style type="text/css">
	.st0{fill:#F2F2F2;stroke:#B3B3B3;stroke-width:0.7;stroke-miterlimit:10;}
	.st1{fill:#FBE38B;}
	.st2{fill:#FBCD3B;stroke:#FBB03B;stroke-width:0.46;stroke-miterlimit:10;}
	.st3{fill:none;stroke:#FBB03B;stroke-width:0.46;stroke-miterlimit:10;}
</style>
<g id="egg_tart">
	<ellipse class="st0" cx="126.1" cy="60.7" rx="125.8" ry="41.5"/>
	<ellipse class="st0" cx="126.1" cy="60.7" rx="71.9" ry="17.8"/>
	<path class="st1" d="M17.2,8c0,0,15.3-5.7,25.8-6.2c5.2-0.3,17.7-1.6,25-1.5s20.9-0.6,31.4,1.7s15,1.5,21,4.5s8.2,3.9,8.1,5.6
		s0.1,2.5-1.6,3.7s-1.6,2.2-1.6,2.2s-6.2,16.1-7.1,17s-5.8,9.2-8.1,11.3s-3.6,4.1-9.3,5.2s-20.1,5.8-31,5.7s-18.2-1-21.1-1.8
		s-14.2-4.5-16.1-6.7s-6.4-8.6-7.9-13c-1.1-3.3-7.2-13.9-8.1-18.2c0,0-4.3-2.1-4-4.1S13.4,9.3,17.2,8z"/>
	<ellipse class="st2" cx="70.6" cy="10.4" rx="46.6" ry="7"/>
	<path class="st3" d="M128.5,12.9c0,7-25.9,12.6-57.9,12.6c-26.9,0-49.6-4-56-9.4c-1.1-0.7-1.7-1.9-1.8-3.2c0-7,25.9-12.6,57.9-12.6
		S128.5,5.9,128.5,12.9z"/>
	<path class="st3" d="M16.7,17.5c0,0,11.6,28.5,16.5,31.5c25,15.2,58.9,5.3,70.9,1.5s21.7-33.8,21.7-33.8"/>
	<line class="st3" x1="32.4" y1="24.2" x2="40.7" y2="47.2"/>
	<line class="st3" x1="52.4" y1="27.6" x2="54.5" y2="50.2"/>
	<line class="st3" x1="74.1" y1="27.9" x2="73.3" y2="51.2"/>
	<line class="st3" x1="97.7" y1="27.9" x2="89.7" y2="47.2"/>
	<line class="st3" x1="117.2" y1="24.6" x2="104.8" y2="45.5"/>
	<path class="st1" d="M133,8c0,0,15.3-5.7,25.8-6.2c5.2-0.3,17.7-1.6,25-1.5s20.9-0.6,31.4,1.7s15,1.4,21,4.5s8.2,3.9,8.1,5.6
		s0.1,2.5-1.6,3.7s-1.6,2.2-1.6,2.2s-6.2,16.1-7.1,17s-5.8,9.2-8.1,11.3s-3.6,4.1-9.3,5.2s-20.1,5.8-31,5.7s-18.2-1-21.1-1.8
		s-14.2-4.5-16.1-6.7s-6.4-8.6-7.9-13c-1.1-3.3-7.2-13.9-8.1-18.2c0,0-4.3-2.1-3.9-4.1S129.2,9.3,133,8z"/>
	<ellipse class="st2" cx="186.4" cy="10.4" rx="46.6" ry="7"/>
	<path class="st3" d="M244.3,12.8c0,7-25.9,12.6-57.9,12.6c-26.9,0-49.6-4-56-9.5c-1.1-0.7-1.7-1.9-1.8-3.2c0-7,25.9-12.6,57.9-12.6
		S244.3,5.9,244.3,12.8z"/>
	<path class="st3" d="M132.5,17.4c0,0,11.6,28.6,16.5,31.6c25,15.3,58.9,5.3,70.9,1.5s21.7-33.8,21.7-33.8"/>
	<line class="st3" x1="148.2" y1="24.1" x2="156.5" y2="47.1"/>
	<line class="st3" x1="168.2" y1="27.6" x2="170.3" y2="50.2"/>
	<line class="st3" x1="189.9" y1="27.8" x2="189.1" y2="51.2"/>
	<line class="st3" x1="213.5" y1="27.8" x2="205.5" y2="47.1"/>
	<line class="st3" x1="233" y1="24.5" x2="220.6" y2="45.5"/>
	<path class="st1" d="M79.1,36.4c0,0,15.3-5.7,25.8-6.2c5.3-0.2,17.7-1.6,25-1.5s20.9-0.6,31.4,1.7s15,1.4,21,4.5s8.2,3.9,8.1,5.6
		s0.1,2.5-1.6,3.7s-1.6,2.2-1.6,2.2s-6.2,16.1-7.1,17c-0.8,0.9-5.8,9.2-8.1,11.3s-3.6,4.1-9.3,5.2s-20.1,5.8-31,5.7
		s-18.2-1-21.1-1.8S96.4,79.2,94.6,77s-6.4-8.6-7.9-13c-1.2-3.3-7.2-13.9-8.1-18.2c0,0-4.3-2.1-4-4.1S75.3,37.7,79.1,36.4z"/>
	<ellipse class="st2" cx="132.5" cy="38.8" rx="46.6" ry="7"/>
	<path class="st3" d="M190.4,41.3c0,7-25.9,12.6-57.9,12.6c-26.9,0-49.6-4-56-9.4c-1.1-0.7-1.7-1.9-1.8-3.2c0-7,25.9-12.6,57.9-12.6
		S190.4,34.3,190.4,41.3z"/>
	<path class="st3" d="M78.6,45.9c0,0,11.6,28.6,16.5,31.5c25,15.3,58.9,5.3,70.9,1.5s21.7-33.8,21.7-33.8"/>
	<line class="st3" x1="94.2" y1="52.6" x2="102.6" y2="75.6"/>
	<line class="st3" x1="114.3" y1="56" x2="116.4" y2="78.6"/>
	<line class="st3" x1="135.9" y1="56.2" x2="135.1" y2="79.6"/>
	<line class="st3" x1="159.5" y1="56.2" x2="151.6" y2="75.6"/>
	<line class="st3" x1="179.1" y1="53" x2="166.7" y2="73.9"/>
</g>
</svg>
