<?xml version="1.0" encoding="utf-8"?>
<!-- Generator: Adobe Illustrator 26.0.1, SVG Export Plug-In . SVG Version: 6.00 Build 0)  -->
<svg version="1.1" id="mixed_puff_with_pork_00000168805914911889557260000000292462057934469276_"
	 xmlns="http://www.w3.org/2000/svg" xmlns:xlink="http://www.w3.org/1999/xlink" x="0px" y="0px" viewBox="0 0 252.2 119.7"
	 style="enable-background:new 0 0 252.2 119.7;" xml:space="preserve">
<style type="text/css">
	.st0{fill:#F2F2F2;stroke:#B3B3B3;stroke-width:0.7;stroke-miterlimit:10;}
	.st1{fill:#FBC965;stroke:#FBB03B;stroke-width:0.78;stroke-miterlimit:10;}
</style>
<g id="mixed_puff_with_pork">
	<ellipse class="st0" cx="126.1" cy="77.8" rx="125.8" ry="41.5"/>
	<ellipse class="st0" cx="126.1" cy="77.8" rx="71.9" ry="17.8"/>
	<path class="st1" d="M21.2,26.4c0,0,24.7-25,45.2-25.8s36.8,2.9,44.7,10.1s18.5,26.6,23.4,27.7s6.4,1.6,6.1,4.1s-4.5,3.2-6.4,5.8
		s-24.1,20.4-42.6,22.9s-56,3.8-75.6-27.6c0,0-7-3.2-8.5-4.8s-3.1-4.5,0.9-6.9S18.5,29,21.2,26.4z"/>
	<path class="st1" d="M125.2,26.4c0,0,24.7-25,45.2-25.8s36.8,2.9,44.7,10.1s18.5,26.6,23.4,27.7s6.4,1.6,6.1,4.1s-4.5,3.2-6.4,5.8
		S214,68.7,195.5,71.2s-56,3.8-75.6-27.6c0,0-7-3.2-8.5-4.8s-3.1-4.5,0.9-6.9S122.4,29,125.2,26.4z"/>
	<path class="st1" d="M78.6,62.3c0,0,24.7-25,45.2-25.8s36.8,2.9,44.7,10.1s18.5,26.6,23.3,27.7s6.4,1.6,6.1,4.1s-4.5,3.2-6.4,5.8
		s-24.1,20.4-42.6,22.9s-56,3.8-75.6-27.6c0,0-7-3.2-8.5-4.8s-3.1-4.5,0.9-6.9S75.8,64.9,78.6,62.3z"/>
</g>
</svg>
