<?xml version="1.0" encoding="utf-8"?>
<!-- Generator: Adobe Illustrator 26.0.1, SVG Export Plug-In . SVG Version: 6.00 Build 0)  -->
<svg version="1.1" id="pineapple_buns_00000046310856670308565440000007028642272693195166_"
	 xmlns="http://www.w3.org/2000/svg" xmlns:xlink="http://www.w3.org/1999/xlink" x="0px" y="0px" viewBox="0 0 252.2 133.5"
	 style="enable-background:new 0 0 252.2 133.5;" xml:space="preserve">
<style type="text/css">
	.st0{fill:#F2F2F2;stroke:#B3B3B3;stroke-width:0.7;stroke-miterlimit:10;}
	.st1{fill:#FBE38B;}
	.st2{fill:#FBCD3B;stroke:#FBB03B;stroke-width:0.61;stroke-miterlimit:10;}
	.st3{fill:none;stroke:#FBB03B;stroke-width:0.61;stroke-miterlimit:10;}
	.st4{fill:none;stroke:#F7931E;stroke-width:0.61;stroke-miterlimit:10;}
</style>
<g id="pineapple_buns">
	<ellipse class="st0" cx="126.1" cy="91.7" rx="125.8" ry="41.5"/>
	<ellipse class="st0" cx="126.1" cy="91.7" rx="71.9" ry="17.8"/>
	<path class="st1" d="M43.3,51.7v5.8c0,0,0.7,10.7,1.7,12.8S52.3,81.1,56.2,83c6.5,3.1,8.4,6.9,17.8,9.5c10.3,2.8,15.2,5,25.5,6.1
		s26.6,2.2,42.6,1s30.6-2.7,38-4.8s15.3-3.7,19.5-8.4s6.7-7.5,7.1-9.6s0.8-14.3,0.8-14.3L43.3,51.7z"/>
	<path class="st2" d="M41.1,46.9c0,0,24.4-37.9,53.1-42.5s59.5-9.9,89.1,13.4c21.5,17,25.9,23.1,27.5,34.6s-1.8,10.5-3.4,11.7
		s-14.6,4.7-20.9,5.3s-15,6.5-23.1,7.3s-32.2-4.5-40.9-5.7s-20.7,4.4-32,3.2S70.1,62.6,62,60.6c-5-1.2-18.1-5.3-18.7-5.8
		C41.6,53,40.6,50.5,41.1,46.9z"/>
	<path class="st3" d="M43.3,54.8c0,0-0.1,13.6,2.7,17.6c3,4.3,19.2,29.8,86.7,27.5s68.9-16.2,72.5-19.8s2.2-16,2.2-16"/>
	<path class="st4" d="M52.3,56c0,0,40.6-47.3,95.9-51.1"/>
	<path class="st4" d="M83.6,52.5c0,0,44.8-38.5,94.6-35.2"/>
	<path class="st4" d="M110.2,59.3c0,0,40-35,81.2-31.1"/>
	<path class="st4" d="M129,68.8c0,0,37.4-30.1,73.9-26.2"/>
	<path class="st4" d="M60.5,34.4c0,0,52.5,1.8,78.1,34.6"/>
	<path class="st4" d="M72.2,23c0,0,52.5,1.8,78.2,34.5"/>
	<path class="st4" d="M90,12.2c0,0,52.4,1.8,78.1,34.5"/>
	<path class="st4" d="M112.2,3.1c0,0,52,6.7,74.6,41.7"/>
</g>
</svg>
