<?xml version="1.0" encoding="utf-8"?>
<!-- Generator: Adobe Illustrator 26.0.1, SVG Export Plug-In . SVG Version: 6.00 Build 0)  -->
<svg version="1.1" id="rice_dumpling_00000077291098797382647170000017866338343599851915_"
	 xmlns="http://www.w3.org/2000/svg" xmlns:xlink="http://www.w3.org/1999/xlink" x="0px" y="0px" viewBox="0 0 251.5 195.2"
	 style="enable-background:new 0 0 251.5 195.2;" xml:space="preserve">
<style type="text/css">
	.st0{fill:#C69C6D;}
	.st1{fill:#8C6239;}
	.st2{fill:none;stroke:#754C24;stroke-miterlimit:10;}
	.st3{fill:#51904A;stroke:#006837;stroke-width:0.6;stroke-miterlimit:10;}
	.st4{fill:none;stroke:#006837;stroke-width:0.6;stroke-miterlimit:10;}
</style>
<g id="dimsum_cage">
	<g id="dimsum_cage-2">
		<path class="st0" d="M2.2,85c0,0,11.2-8.5,44.2-13c24.9-3.4,60.4-4.6,65.9-4.7s42.7-1.4,54.2,1s43.6,1.3,71.7,10.7
			c9.2,3.1,12.1,3.5,12.4,7.8s0,88.2,0,88.2s-5.9,6.7-22.5,10.6c-7.3,1.7-50.1,10.2-121.8,9c-15.9-0.2-86.9-3.3-105.8-18.6l-0.3-9.7
			l0.3-77.9L2.2,85z"/>
		<polygon class="st1" points="35.3,102.8 92.4,80.5 103.7,81.2 45.3,104.3 		"/>
		<polygon class="st1" points="89.5,108.2 149,80.7 157.2,81.2 98.8,108.2 96.8,109.7 		"/>
		<polygon class="st1" points="158.1,109.1 202.1,85.2 208.3,85.8 168.5,108.2 		"/>
		<ellipse class="st2" cx="125.8" cy="88.5" rx="125.2" ry="21.2"/>
		<path class="st2" d="M6.1,95.5C22,86.8,69.6,80.5,125.8,80.5c55.5,0,102.5,6.1,119,14.6"/>
		<path class="st2" d="M251,101.8c0,11.7-56.1,21.2-125.2,21.2S0.5,113.5,0.5,101.8"/>
		<path class="st2" d="M251,136.8c0,11.7-56.1,21.2-125.2,21.2S0.5,148.5,0.5,136.8"/>
		<path class="st2" d="M251,173.5c0,11.7-56.1,21.2-125.3,21.2S0.5,185.2,0.5,173.5"/>
		<line class="st2" x1="0.5" y1="88.5" x2="0.5" y2="173.5"/>
		<line class="st2" x1="251" y1="88.5" x2="251" y2="173.5"/>
		<line class="st2" x1="43.1" y1="104.4" x2="105.2" y2="80.8"/>
		<line class="st2" x1="96.6" y1="109.1" x2="158.1" y2="81.3"/>
		<line class="st2" x1="157.2" y1="109" x2="202.3" y2="85"/>
		<line class="st2" x1="34" y1="102.9" x2="93.3" y2="81.3"/>
		<line class="st2" x1="87.8" y1="108.7" x2="150.8" y2="81"/>
		<line class="st2" x1="167.4" y1="108.5" x2="209" y2="85.9"/>
		<line class="st2" x1="110.8" y1="123" x2="110.8" y2="194.7"/>
	</g>
</g>
<g id="rice_dumpling">
	<path class="st3" d="M12.3,58.1c0,0,44.4-50.5,62.4-54.7s28.9-3.4,38.5-2s38.7,9.1,49.6,22.8c5.3,6.8,6,8.7,4.2,18.8
		c-1.2,6.7-36.7,55.9-46.4,58.1s-14.9,4.4-28.5,2.4S1.6,84.7,12.3,58.1z"/>
	<path class="st4" d="M18,62.2c2.4-2,7.4-5.8,18.2-4.1S79.9,67.3,93,79.5s16.9,21.7,2.1,20.3s-44-13.3-44-13.3"/>
	<path class="st4" d="M30.8,71.3c-1.9-4.9,1.6-4.1,11.5-2s27.7,10,38.1,19.4"/>
	<path class="st4" d="M70.1,5.1c0,0,62.9,47.2,53.2,87.7"/>
	<path class="st4" d="M23,46.4c0,0,37.1-22.4,76.9-13.1"/>
	<path class="st3" d="M88,60.8c0,0,44.4-50.5,62.4-54.7s28.9-3.4,38.4-2s38.7,9.1,49.6,22.8c5.3,6.8,6,8.7,4.2,18.8
		c-1.2,6.7-36.7,55.9-46.4,58.1s-14.9,4.4-28.6,2.4S77.3,87.4,88,60.8z"/>
	<path class="st4" d="M93.7,64.9c2.4-2,7.4-5.8,18.2-4.1s43.6,9.3,56.7,21.4s16.9,21.7,2.1,20.3s-44-13.3-44-13.3"/>
	<path class="st4" d="M106.6,74c-1.9-4.9,1.6-4.1,11.5-2s27.8,10,38.1,19.4"/>
	<path class="st4" d="M145.8,7.9c0,0,62.9,47.1,53.2,87.7"/>
	<path class="st4" d="M98.7,49.1c0,0,37.1-22.5,77-13.1"/>
</g>
</svg>
