<?xml version="1.0" encoding="utf-8"?>
<!-- Generator: Adobe Illustrator 26.0.1, SVG Export Plug-In . SVG Version: 6.00 Build 0)  -->
<svg version="1.1" id="sesame_balls" xmlns="http://www.w3.org/2000/svg" xmlns:xlink="http://www.w3.org/1999/xlink" x="0px"
	 y="0px" viewBox="0 0 252.2 131.5" style="enable-background:new 0 0 252.2 131.5;" xml:space="preserve">
<style type="text/css">
	.st0{fill:#F2F2F2;stroke:#B3B3B3;stroke-width:0.7;stroke-miterlimit:10;}
	.st1{fill:#FBC965;stroke:#F7931E;stroke-width:0.67;stroke-miterlimit:10;}
	.st2{fill:#FFFFFF;}
</style>
<g id="sesame_x5F_balls">
	<ellipse class="st0" cx="126.1" cy="89.7" rx="125.8" ry="41.5"/>
	<ellipse class="st0" cx="126.1" cy="89.7" rx="71.9" ry="17.8"/>
	<circle class="st1" cx="64.4" cy="48.2" r="47.9"/>
	<ellipse class="st2" cx="67.3" cy="11.9" rx="2.9" ry="1.3"/>
	<ellipse class="st2" cx="53.4" cy="7.3" rx="2.9" ry="1.3"/>
	<ellipse class="st2" cx="51.7" cy="19.1" rx="2.9" ry="1.3"/>
	<ellipse class="st2" cx="35.5" cy="20.4" rx="2.9" ry="1.3"/>
	<ellipse class="st2" cx="68.2" cy="27.2" rx="2.9" ry="1.3"/>
	<ellipse class="st2" cx="80.9" cy="10" rx="2.9" ry="1.3"/>
	<ellipse class="st2" cx="87.8" cy="21.4" rx="2.9" ry="1.3"/>
	<ellipse class="st2" cx="98.4" cy="24" rx="2.9" ry="1.3"/>
	<ellipse class="st2" cx="89" cy="35.5" rx="2.9" ry="1.3"/>
	<ellipse class="st2" cx="83.7" cy="48.2" rx="2.9" ry="1.3"/>
	<ellipse class="st2" cx="72.6" cy="58.1" rx="2.9" ry="1.3"/>
	<ellipse class="st2" cx="83.7" cy="62.3" rx="2.9" ry="1.3"/>
	<ellipse class="st2" cx="82.1" cy="75.2" rx="2.9" ry="1.3"/>
	<ellipse class="st2" cx="96.7" cy="68.8" rx="2.9" ry="1.3"/>
	<ellipse class="st2" cx="45.2" cy="52.5" rx="2.9" ry="1.3"/>
	<ellipse class="st2" cx="20.9" cy="51.7" rx="2.9" ry="1.3"/>
	<ellipse class="st2" cx="27.3" cy="63.7" rx="2.9" ry="1.3"/>
	<ellipse class="st2" cx="35.5" cy="78.9" rx="2.9" ry="1.3"/>
	<ellipse class="st2" cx="99.6" cy="34.2" rx="2.9" ry="1.3"/>
	<ellipse class="st2" cx="76.4" cy="39.2" rx="2.9" ry="1.3"/>
	<ellipse class="st2" cx="98.4" cy="55.5" rx="2.9" ry="1.3"/>
	<ellipse class="st2" cx="102.5" cy="48.2" rx="2.9" ry="1.3"/>
	<ellipse class="st2" cx="27.3" cy="32.8" rx="2.9" ry="1.3"/>
	<ellipse class="st2" cx="48.1" cy="41" rx="2.9" ry="1.3"/>
	<ellipse class="st2" cx="58.6" cy="39.7" rx="2.9" ry="1.3"/>
	<ellipse class="st2" cx="35.4" cy="44.7" rx="2.9" ry="1.3"/>
	<ellipse class="st2" cx="57.5" cy="61" rx="2.9" ry="1.3"/>
	<ellipse class="st2" cx="61.5" cy="53.8" rx="2.9" ry="1.3"/>
	<ellipse class="st2" cx="36.3" cy="60.5" rx="2.9" ry="1.3"/>
	<ellipse class="st2" cx="57.1" cy="68.8" rx="2.9" ry="1.3"/>
	<ellipse class="st2" cx="67.7" cy="67.5" rx="2.9" ry="1.3"/>
	<ellipse class="st2" cx="44.5" cy="72.5" rx="2.9" ry="1.3"/>
	<ellipse class="st2" cx="66.5" cy="88.8" rx="2.9" ry="1.3"/>
	<ellipse class="st2" cx="58.6" cy="80.2" rx="2.9" ry="1.3"/>
	<circle class="st1" cx="198" cy="49.6" r="47.9"/>
	<ellipse class="st2" cx="200.9" cy="13.2" rx="2.9" ry="1.3"/>
	<ellipse class="st2" cx="187" cy="8.6" rx="2.9" ry="1.3"/>
	<ellipse class="st2" cx="185.2" cy="20.4" rx="2.9" ry="1.3"/>
	<ellipse class="st2" cx="169.1" cy="21.7" rx="2.9" ry="1.3"/>
	<ellipse class="st2" cx="201.8" cy="28.6" rx="2.9" ry="1.3"/>
	<ellipse class="st2" cx="214.4" cy="11.3" rx="2.9" ry="1.3"/>
	<ellipse class="st2" cx="221.4" cy="22.7" rx="2.9" ry="1.3"/>
	<ellipse class="st2" cx="232" cy="25.3" rx="2.9" ry="1.3"/>
	<ellipse class="st2" cx="222.6" cy="36.8" rx="2.9" ry="1.3"/>
	<ellipse class="st2" cx="217.3" cy="49.6" rx="2.9" ry="1.3"/>
	<ellipse class="st2" cx="206.2" cy="59.5" rx="2.9" ry="1.3"/>
	<ellipse class="st2" cx="217.3" cy="63.7" rx="2.9" ry="1.3"/>
	<ellipse class="st2" cx="215.7" cy="76.5" rx="2.9" ry="1.3"/>
	<ellipse class="st2" cx="230.3" cy="70.1" rx="2.9" ry="1.3"/>
	<ellipse class="st2" cx="178.8" cy="53.8" rx="2.9" ry="1.3"/>
	<ellipse class="st2" cx="154.5" cy="53" rx="2.9" ry="1.3"/>
	<ellipse class="st2" cx="160.9" cy="65" rx="2.9" ry="1.3"/>
	<ellipse class="st2" cx="169.1" cy="80.2" rx="2.9" ry="1.3"/>
	<ellipse class="st2" cx="233.2" cy="35.5" rx="2.9" ry="1.3"/>
	<ellipse class="st2" cx="209.9" cy="40.5" rx="2.9" ry="1.3"/>
	<ellipse class="st2" cx="232" cy="56.8" rx="2.9" ry="1.3"/>
	<ellipse class="st2" cx="236.1" cy="49.6" rx="2.9" ry="1.3"/>
	<ellipse class="st2" cx="160.9" cy="34.1" rx="2.9" ry="1.3"/>
	<ellipse class="st2" cx="181.6" cy="42.4" rx="2.9" ry="1.3"/>
	<ellipse class="st2" cx="192.2" cy="41" rx="2.9" ry="1.3"/>
	<ellipse class="st2" cx="169" cy="46" rx="2.9" ry="1.3"/>
	<ellipse class="st2" cx="191.1" cy="62.3" rx="2.9" ry="1.3"/>
	<ellipse class="st2" cx="195.1" cy="55.1" rx="2.9" ry="1.3"/>
	<ellipse class="st2" cx="169.9" cy="61.9" rx="2.9" ry="1.3"/>
	<ellipse class="st2" cx="190.7" cy="70.1" rx="2.9" ry="1.3"/>
	<ellipse class="st2" cx="201.3" cy="68.8" rx="2.9" ry="1.3"/>
	<ellipse class="st2" cx="178" cy="73.8" rx="2.9" ry="1.3"/>
	<ellipse class="st2" cx="200.1" cy="90.1" rx="2.9" ry="1.3"/>
	<ellipse class="st2" cx="192.2" cy="81.5" rx="2.9" ry="1.3"/>
	<circle class="st1" cx="129.4" cy="70.3" r="47.9"/>
	<ellipse class="st2" cx="132.3" cy="34" rx="2.9" ry="1.3"/>
	<ellipse class="st2" cx="118.5" cy="29.4" rx="2.9" ry="1.3"/>
	<ellipse class="st2" cx="116.7" cy="41.2" rx="2.9" ry="1.3"/>
	<ellipse class="st2" cx="100.5" cy="42.5" rx="2.9" ry="1.3"/>
	<ellipse class="st2" cx="133.2" cy="49.3" rx="2.9" ry="1.3"/>
	<ellipse class="st2" cx="145.9" cy="32.1" rx="2.9" ry="1.3"/>
	<ellipse class="st2" cx="152.9" cy="43.4" rx="2.9" ry="1.3"/>
	<ellipse class="st2" cx="163.5" cy="46.1" rx="2.9" ry="1.3"/>
	<ellipse class="st2" cx="154" cy="57.6" rx="2.9" ry="1.3"/>
	<ellipse class="st2" cx="148.8" cy="70.3" rx="2.9" ry="1.3"/>
	<ellipse class="st2" cx="137.6" cy="80.2" rx="2.9" ry="1.3"/>
	<ellipse class="st2" cx="148.8" cy="84.4" rx="2.9" ry="1.3"/>
	<ellipse class="st2" cx="147.1" cy="97.2" rx="2.9" ry="1.3"/>
	<ellipse class="st2" cx="161.7" cy="90.9" rx="2.9" ry="1.3"/>
	<ellipse class="st2" cx="110.2" cy="74.5" rx="2.9" ry="1.3"/>
	<ellipse class="st2" cx="85.9" cy="73.8" rx="2.9" ry="1.3"/>
	<ellipse class="st2" cx="92.3" cy="85.8" rx="2.9" ry="1.3"/>
	<ellipse class="st2" cx="100.5" cy="101" rx="2.9" ry="1.3"/>
	<ellipse class="st2" cx="164.6" cy="56.2" rx="2.9" ry="1.3"/>
	<ellipse class="st2" cx="141.4" cy="61.3" rx="2.9" ry="1.3"/>
	<ellipse class="st2" cx="163.5" cy="77.6" rx="2.9" ry="1.3"/>
	<ellipse class="st2" cx="167.5" cy="70.3" rx="2.9" ry="1.3"/>
	<ellipse class="st2" cx="92.3" cy="54.9" rx="2.9" ry="1.3"/>
	<ellipse class="st2" cx="113.1" cy="63.1" rx="2.9" ry="1.3"/>
	<ellipse class="st2" cx="123.7" cy="61.8" rx="2.9" ry="1.3"/>
	<ellipse class="st2" cx="100.4" cy="66.8" rx="2.9" ry="1.3"/>
	<ellipse class="st2" cx="122.5" cy="83.1" rx="2.9" ry="1.3"/>
	<ellipse class="st2" cx="126.5" cy="75.9" rx="2.9" ry="1.3"/>
	<ellipse class="st2" cx="101.3" cy="82.6" rx="2.9" ry="1.3"/>
	<ellipse class="st2" cx="122.1" cy="90.9" rx="2.9" ry="1.3"/>
	<ellipse class="st2" cx="132.7" cy="89.6" rx="2.9" ry="1.3"/>
	<ellipse class="st2" cx="109.5" cy="94.6" rx="2.9" ry="1.3"/>
	<ellipse class="st2" cx="131.6" cy="110.9" rx="2.9" ry="1.3"/>
	<ellipse class="st2" cx="123.7" cy="102.3" rx="2.9" ry="1.3"/>
</g>
</svg>
