<?xml version="1.0" encoding="utf-8"?>
<!-- Generator: Adobe Illustrator 26.0.1, SVG Export Plug-In . SVG Version: 6.00 Build 0)  -->
<svg version="1.1" id="shrimp_dumplings" xmlns="http://www.w3.org/2000/svg" xmlns:xlink="http://www.w3.org/1999/xlink" x="0px"
	 y="0px" viewBox="0 0 251.5 163.1" style="enable-background:new 0 0 251.5 163.1;" xml:space="preserve">
<style type="text/css">
	.st0{fill:#C69C6D;}
	.st1{fill:#8C6239;}
	.st2{fill:none;stroke:#754C24;stroke-miterlimit:10;}
	.st3{fill:#E7ECE6;stroke:#B8CCC5;stroke-width:0.55;stroke-miterlimit:10;}
	.st4{fill:none;stroke:#B8CCC5;stroke-width:0.55;stroke-miterlimit:10;}
</style>
<g id="dimsum_cage">
	<g id="dimsum_cage-2">
		<path class="st0" d="M2.2,52.9c0,0,11.2-8.5,44.2-12.9c24.9-3.4,60.4-4.6,65.9-4.7s42.7-1.4,54.2,1s43.6,1.3,71.7,10.8
			c9.2,3.1,12.1,3.5,12.4,7.8s0,88.2,0,88.2s-5.9,6.7-22.5,10.6c-7.3,1.7-50.1,10.2-121.8,9c-15.9-0.2-86.9-3.4-105.8-18.6l-0.3-9.7
			l0.3-77.9L2.2,52.9z"/>
		<polygon class="st1" points="35.3,70.7 92.4,48.4 103.7,49.1 45.3,72.2 		"/>
		<polygon class="st1" points="89.5,76.1 149,48.6 157.2,49.1 98.8,76.1 96.8,77.6 		"/>
		<polygon class="st1" points="158.1,76.9 202.1,53 208.3,53.7 168.5,76.1 		"/>
		<ellipse class="st2" cx="125.8" cy="56.4" rx="125.2" ry="21.2"/>
		<path class="st2" d="M6.1,63.3C22,54.7,69.6,48.4,125.8,48.4c55.5,0,102.5,6.1,119,14.6"/>
		<path class="st2" d="M251,69.7c0,11.7-56.1,21.2-125.3,21.2S0.5,81.4,0.5,69.7"/>
		<path class="st2" d="M251,104.7c0,11.7-56.1,21.2-125.3,21.2S0.5,116.4,0.5,104.7"/>
		<path class="st2" d="M251,141.4c0,11.7-56.1,21.2-125.3,21.2S0.5,153.1,0.5,141.4"/>
		<line class="st2" x1="0.5" y1="56.4" x2="0.5" y2="141.4"/>
		<line class="st2" x1="251" y1="56.4" x2="251" y2="141.4"/>
		<line class="st2" x1="43.1" y1="72.3" x2="105.2" y2="48.7"/>
		<line class="st2" x1="96.6" y1="77" x2="158.1" y2="49.2"/>
		<line class="st2" x1="157.2" y1="76.9" x2="202.3" y2="52.9"/>
		<line class="st2" x1="34" y1="70.8" x2="93.3" y2="49.2"/>
		<line class="st2" x1="87.8" y1="76.6" x2="150.8" y2="48.8"/>
		<line class="st2" x1="167.4" y1="76.4" x2="209" y2="53.8"/>
		<line class="st2" x1="110.8" y1="90.9" x2="110.8" y2="162.6"/>
	</g>
</g>
<g id="shrimp_x5F_dumplings">
	<path class="st3" d="M41.9,49.1c2.1-2.9,3.3-6.4,3.4-10c0.2-5.9-8.1-18.9-2.7-26.6S57.8,1,63.5,0.4s32.3,2,39.5,6.7
		s12,8.5,11.8,14.8s-2,16.1-11.2,22.6c-0.9,1.2-1.4,2.7-1.3,4.2c0.4,3,0.9,6,1.7,8.9c0.4,1.4,0.9,2-0.1,2.2s-5.6-5.3-10.7-5
		s-6.9,2-9.9,4.2s-9.4,5.6-15.5-0.8S65.8,51,61,51s-19.7,1.6-20.2,0.5S41.9,49.1,41.9,49.1z"/>
	<path class="st4" d="M64.1,5.4c0,0-8.7,7.3-7.9,17.6"/>
	<line class="st4" x1="81.7" y1="9.5" x2="76" y2="29.8"/>
	<path class="st4" d="M98.6,12.4c0,0,2.8,14,0.5,17.4"/>
	<path class="st3" d="M152.3,50.4c2.1-2.9,3.3-6.4,3.4-10c0.2-5.9-8.1-18.9-2.7-26.6s15.2-11.6,20.9-12.2s32.3,2.1,39.5,6.8
		s12,8.5,11.8,14.8s-2.1,16.2-11.2,22.6c-0.9,1.2-1.4,2.7-1.3,4.2c0.3,3,0.9,6,1.6,8.9c0.4,1.4,0.9,2-0.1,2.2s-5.6-5.3-10.6-5
		s-6.9,2-9.9,4.2s-9.4,5.6-15.5-0.8s-2.1-7.2-6.8-7.2s-19.7,1.6-20.2,0.5S152.3,50.4,152.3,50.4z"/>
	<path class="st4" d="M174.6,6.7c0,0-8.7,7.3-7.9,17.6"/>
	<line class="st4" x1="192.1" y1="10.8" x2="186.4" y2="31.1"/>
	<path class="st4" d="M209,13.7c0,0,2.8,14,0.5,17.4"/>
	<path class="st3" d="M89.5,62.8c2.1-2.9,3.3-6.4,3.4-10c0.2-5.9-8.1-18.9-2.7-26.6s15.2-11.6,20.9-12.2s32.3,2,39.5,6.8
		s12.1,8.5,11.8,14.8s-2,16.2-11.2,22.6c-0.9,1.2-1.4,2.7-1.3,4.2c0.4,3,0.9,6,1.6,8.9c0.4,1.4,0.9,2-0.1,2.2s-5.6-5.3-10.6-5
		s-6.9,2-9.9,4.2s-9.4,5.6-15.5-0.8s-2-7.2-6.8-7.2S89,66.4,88.5,65.3S89.5,62.8,89.5,62.8z"/>
	<path class="st4" d="M111.8,19.1c0,0-8.7,7.3-7.8,17.6"/>
	<line class="st4" x1="129.4" y1="23.2" x2="123.7" y2="43.5"/>
	<path class="st4" d="M146.2,26.1c0,0,2.8,14,0.5,17.4"/>
</g>
</svg>
