<?xml version="1.0" encoding="utf-8"?>
<!-- Generator: Adobe Illustrator 26.0.1, SVG Export Plug-In . SVG Version: 6.00 Build 0)  -->
<svg version="1.1" id="siomai_00000021829374990177740980000008432635051983295382_"
	 xmlns="http://www.w3.org/2000/svg" xmlns:xlink="http://www.w3.org/1999/xlink" x="0px" y="0px" viewBox="0 0 251.5 153.1"
	 style="enable-background:new 0 0 251.5 153.1;" xml:space="preserve">
<style type="text/css">
	.st0{fill:#C69C6D;}
	.st1{fill:#8C6239;}
	.st2{fill:none;stroke:#754C24;stroke-miterlimit:10;}
	.st3{fill:#FFD8BB;}
	.st4{fill:#FCEE21;stroke:#F7931E;stroke-width:0.54;stroke-miterlimit:10;}
	.st5{fill:#F15A24;stroke:#F15A24;stroke-width:0.54;stroke-miterlimit:10;}
	.st6{fill:none;stroke:#F7931E;stroke-width:0.54;stroke-miterlimit:10;}
</style>
<g id="dimsum_cage">
	<g id="dimsum_cage-2">
		<path class="st0" d="M2.2,42.9c0,0,11.2-8.5,44.2-12.9c24.9-3.4,60.4-4.6,65.9-4.7s42.7-1.4,54.2,1s43.6,1.3,71.7,10.8
			c9.2,3.1,12.1,3.5,12.4,7.8s0,88.2,0,88.2s-5.9,6.7-22.5,10.6c-7.3,1.7-50.1,10.2-121.8,9c-15.9-0.3-86.9-3.4-105.8-18.7l-0.3-9.7
			l0.3-77.9L2.2,42.9z"/>
		<polygon class="st1" points="35.3,60.8 92.4,38.5 103.7,39.1 45.3,62.2 		"/>
		<polygon class="st1" points="89.5,66.1 149,38.7 157.2,39.1 98.8,66.1 96.8,67.6 		"/>
		<polygon class="st1" points="158.1,67 202.1,43.1 208.3,43.7 168.5,66.1 		"/>
		<ellipse class="st2" cx="125.8" cy="46.4" rx="125.2" ry="21.2"/>
		<path class="st2" d="M6.1,53.4C22,44.7,69.6,38.5,125.8,38.5c55.5,0,102.5,6.1,119,14.6"/>
		<path class="st2" d="M251,59.7c0,11.7-56.1,21.2-125.3,21.2S0.5,71.4,0.5,59.7"/>
		<path class="st2" d="M251,94.7c0,11.7-56.1,21.2-125.3,21.2S0.5,106.4,0.5,94.7"/>
		<path class="st2" d="M251,131.4c0,11.7-56.1,21.2-125.3,21.2S0.5,143.1,0.5,131.4"/>
		<line class="st2" x1="0.5" y1="46.4" x2="0.5" y2="131.4"/>
		<line class="st2" x1="251" y1="46.4" x2="251" y2="131.4"/>
		<line class="st2" x1="43.1" y1="62.3" x2="105.2" y2="38.7"/>
		<line class="st2" x1="96.6" y1="67" x2="158.1" y2="39.2"/>
		<line class="st2" x1="157.2" y1="66.9" x2="202.3" y2="42.9"/>
		<line class="st2" x1="34" y1="60.8" x2="93.3" y2="39.2"/>
		<line class="st2" x1="87.8" y1="66.6" x2="150.8" y2="38.9"/>
		<line class="st2" x1="167.4" y1="66.4" x2="209" y2="43.8"/>
		<line class="st2" x1="110.8" y1="80.9" x2="110.8" y2="152.6"/>
	</g>
</g>
<g id="siomai">
	<path class="st3" d="M55.3,16.8c0-0.1-0.3-5,2.1-6.9c2.6-2.2,2.2-2.2,11.5-4.6c6.2-1.6,24.6-0.5,27.7,0.1s7.2,1.5,7.8,2.3
		s4.9,2.4,6.2,5c0.8,1.6,1.9,3.5,2.1,5.1c0.1,1.5,0.1,3,0,4.4l-3.1,1.9l-20.8,4.2l-22.9-1.4l-9.2-6.7L55.3,16.8z"/>
	<path class="st4" d="M51.5,18.1c0,0,4.3-1.1,6.7,0S65,23,68.6,22.8s9.3-5.3,12.6-5.2s7,7.1,10.4,6.6s8.9-7.9,11.2-6.6
		s4.8,4.5,7.3,4.8s5-2.1,5.4-1.7s-3.6,5.9-4.2,8.5s-2.3,20.9-5.4,25.3s-10,7.3-14.8,7.7S71,62.4,67.6,61.4s-10.1-2.5-11.3-10
		s0.9-26.7-1.9-30S51.4,19.7,51.5,18.1z"/>
	<path class="st5" d="M91.3,3.8c0,1.9-4.3,3.5-9.7,3.5s-9.7-1.6-9.7-3.5c0-0.2,0.1-0.4,0.2-0.6c0.8-1.6,4.8-2.9,9.5-2.9
		C87,0.3,91.3,1.8,91.3,3.8z"/>
	<path class="st6" d="M55.6,17.5c0,0-5-10.1,16.3-12.7"/>
	<path class="st6" d="M112.9,21.9c0,0,3.3-16.1-22-17.1"/>
	<path class="st3" d="M149.5,16.8c0-0.1-0.3-5,2.1-6.9c2.6-2.2,2.2-2.2,11.5-4.6c6.2-1.6,24.6-0.5,27.7,0.1s7.2,1.5,7.9,2.3
		s4.9,2.4,6.2,5c0.8,1.6,1.9,3.5,2.1,5.1c0.1,1.5,0.1,3,0,4.4l-3.1,1.9l-20.8,4.2l-22.9-1.4l-9.3-6.7L149.5,16.8z"/>
	<path class="st4" d="M145.7,18.1c0,0,4.4-1.1,6.7,0s6.9,4.9,10.4,4.7s9.3-5.3,12.6-5.2s7,7.1,10.4,6.6s8.9-7.9,11.2-6.6
		s4.8,4.5,7.3,4.8s5-2.1,5.4-1.7s-3.6,5.9-4.2,8.5s-2.3,20.9-5.4,25.3s-10,7.3-14.8,7.7s-20.2,0.2-23.6-0.9s-10.1-2.5-11.4-10
		s0.9-26.7-1.9-30S145.6,19.7,145.7,18.1z"/>
	<path class="st5" d="M185.5,3.8c0,1.9-4.3,3.5-9.7,3.5s-9.7-1.6-9.7-3.5c0-0.2,0.1-0.4,0.2-0.6c0.8-1.6,4.8-2.9,9.5-2.9
		C181.1,0.3,185.5,1.8,185.5,3.8z"/>
	<path class="st6" d="M149.8,17.5c0,0-5-10.1,16.3-12.7"/>
	<path class="st6" d="M207.1,21.9c0,0,3.3-16.1-22-17.1"/>
	<path class="st3" d="M100.4,21c0-0.1-0.3-5,2.1-6.9c2.7-2.1,2.2-2.2,11.5-4.6c6.2-1.6,24.6-0.5,27.7,0.1s7.2,1.5,7.9,2.3
		s4.9,2.4,6.2,5c0.8,1.6,1.9,3.5,2.1,5.1c0.1,1.5,0.1,3,0,4.4l-3.1,1.9L134,32.5l-22.8-1.4l-9.2-6.7L100.4,21z"/>
	<path class="st4" d="M96.7,22.3c0,0,4.4-1.1,6.7,0s6.8,4.9,10.4,4.7s9.3-5.3,12.6-5.2c3.3,0.1,7,7.1,10.4,6.6s8.9-7.9,11.2-6.6
		s4.8,4.5,7.3,4.8s5-2.1,5.4-1.7s-3.6,5.9-4.2,8.5s-2.3,20.9-5.4,25.3s-10,7.3-14.8,7.7s-20.2,0.1-23.6-0.9s-10.1-2.5-11.4-10
		s0.9-26.7-1.9-30S96.5,23.9,96.7,22.3z"/>
	<path class="st5" d="M136.4,8c0,1.9-4.3,3.5-9.7,3.5S117,9.9,117,8c0-0.2,0.1-0.4,0.2-0.6c0.8-1.6,4.8-2.9,9.5-2.9
		C132.1,4.5,136.4,6.1,136.4,8z"/>
	<path class="st6" d="M100.7,21.7c0,0-5-10.1,16.3-12.7"/>
	<path class="st6" d="M158,26.1c0,0,3.3-16.1-22-17.1"/>
</g>
</svg>
