<?xml version="1.0" encoding="utf-8"?>
<!-- Generator: Adobe Illustrator 26.0.1, SVG Export Plug-In . SVG Version: 6.00 Build 0)  -->
<svg version="1.1" id="xiaolongbao_00000131336665293038118210000006637207940682363556_"
	 xmlns="http://www.w3.org/2000/svg" xmlns:xlink="http://www.w3.org/1999/xlink" x="0px" y="0px" viewBox="0 0 251.5 155"
	 style="enable-background:new 0 0 251.5 155;" xml:space="preserve">
<style type="text/css">
	.st0{fill:#C69C6D;}
	.st1{fill:#8C6239;}
	.st2{fill:none;stroke:#754C24;stroke-miterlimit:10;}
	.st3{fill:#F2F2F2;stroke:#999999;stroke-width:0.58;stroke-miterlimit:10;}
	.st4{fill:none;stroke:#999999;stroke-width:0.58;stroke-miterlimit:10;}
</style>
<g id="dimsum_x5F_cage">
	<g id="dimsum_x5F_cage_00000154398430572263895600000015685125891535633057_">
		<path id="cagebg" class="st0" d="M2.2,44.7c0,0,11.2-8.4,44.2-12.9c24.9-3.4,60.4-4.6,65.9-4.7s42.7-1.4,54.2,1
			s43.6,1.3,71.7,10.7c9.2,3.1,12.1,3.5,12.4,7.8s0,88.2,0,88.2s-5.9,6.7-22.5,10.6c-7.3,1.7-50.1,10.2-121.8,9
			c-15.9-0.2-86.9-3.4-105.8-18.6l-0.3-9.7l0.3-77.9L2.2,44.7z"/>
		<polygon class="st1" points="35.3,62.6 92.4,40.3 103.7,40.9 45.3,64 		"/>
		<polygon class="st1" points="89.5,67.9 149,40.5 157.2,40.9 98.8,67.9 96.8,69.4 		"/>
		<polygon class="st1" points="158.1,68.8 202.1,44.9 208.3,45.5 168.5,67.9 		"/>
		<ellipse class="st2" cx="125.8" cy="48.2" rx="125.2" ry="21.2"/>
		<path class="st2" d="M6.1,55.2C22,46.5,69.6,40.3,125.8,40.3c55.5,0,102.5,6.1,119,14.6"/>
		<path class="st2" d="M251,61.5c0,11.7-56.1,21.2-125.3,21.2S0.5,73.2,0.5,61.5"/>
		<path class="st2" d="M251,96.5c0,11.7-56.1,21.2-125.3,21.2S0.5,108.2,0.5,96.5"/>
		<path class="st2" d="M251,133.2c0,11.7-56.1,21.2-125.3,21.2S0.5,145,0.5,133.2"/>
		<line class="st2" x1="0.5" y1="48.2" x2="0.5" y2="133.2"/>
		<line class="st2" x1="251" y1="48.2" x2="251" y2="133.2"/>
		<line class="st2" x1="43.1" y1="64.2" x2="105.2" y2="40.5"/>
		<line class="st2" x1="96.6" y1="68.9" x2="158.1" y2="41"/>
		<line class="st2" x1="157.2" y1="68.8" x2="202.3" y2="44.7"/>
		<line class="st2" x1="34" y1="62.7" x2="93.3" y2="41"/>
		<line class="st2" x1="87.8" y1="68.4" x2="150.8" y2="40.7"/>
		<line class="st2" x1="167.4" y1="68.2" x2="209" y2="45.6"/>
		<line class="st2" x1="110.8" y1="82.7" x2="110.8" y2="154.4"/>
	</g>
</g>
<g id="xiaolongbao">
	<g id="xiaolongbao-2">
		<g id="xiaolongbao03">
			<path class="st3" d="M172.8,1.6c0,0,0.8,2-4.6,7.4s-15.5,10.8-19.1,14.5s-8.6,7.3-9.3,15.2s5,17.1,17.8,19.8s35,1.9,43.1,0.5
				s16.4-6.7,16.4-16.9s-3.9-17.7-13-21.3c0,0-9.6-4.8-11.8-7.1S180.8,7.5,177.5,4S173.6-1,172.8,1.6z"/>
			<path class="st4" d="M174.1,1.7c-0.6,2.9-1.7,5.7-3.2,8.3c-2.3,3.4-7.5,7.2-8.1,8.9"/>
			<line class="st4" x1="175" y1="4.7" x2="176.2" y2="23.6"/>
			<path class="st4" d="M179.4,9c0.5,0.1,5.2,5.8,11,9.9"/>
		</g>
		<g id="xiaolongbao02">
			<path class="st3" d="M70.7,2.2c0,0,0.8,2-4.7,7.4S50.6,20.4,47,24.1s-8.7,7.3-9.3,15.2s5,17.1,17.8,19.8s35,1.9,43.1,0.5
				S115,53,115,42.8s-3.9-17.7-13-21.3c0,0-9.6-4.8-11.8-7.1S78.7,8.2,75.5,4.7S71.5-0.4,70.7,2.2z"/>
			<path class="st4" d="M72,2.3c-0.6,2.9-1.7,5.8-3.2,8.3c-2.3,3.4-7.5,7.2-8.1,8.9"/>
			<line class="st4" x1="72.9" y1="5.3" x2="74.1" y2="24.3"/>
			<path class="st4" d="M77.3,9.6c0.5,0.1,5.2,5.8,11,9.9"/>
		</g>
		<g id="xiaolongbao01">
			<path class="st3" d="M117.5,8.9c0,0,0.8,2-4.7,7.4S97.4,27,93.7,30.8S85,38.1,84.4,46s5,17.1,17.8,19.8s35,1.9,43.1,0.5
				s16.4-6.7,16.4-16.9s-3.9-17.7-13-21.3c0,0-9.6-4.8-11.8-7.1s-11.5-6.2-14.7-9.7S118.3,6.2,117.5,8.9z"/>
			<path class="st4" d="M118.8,9c-0.6,2.9-1.7,5.8-3.2,8.3c-2.3,3.4-7.5,7.2-8.1,8.9"/>
			<line class="st4" x1="119.7" y1="11.9" x2="120.9" y2="30.9"/>
			<path class="st4" d="M124.1,16.3c0.5,0,5.2,5.8,11,9.9"/>
		</g>
	</g>
</g>
</svg>
